<svg width="9" height="9" viewBox="0 0 9 9" fill="none" xmlns="http://www.w3.org/2000/svg">
<path d="M0.434315 7.46996C0.121895 7.78238 0.121895 8.28891 0.434315 8.60133C0.746734 8.91375 1.25327 8.91375 1.56569 8.60133L0.434315 7.46996ZM8.87107 0.964577C8.87107 0.522749 8.5129 0.164577 8.07107 0.164577L0.871068 0.164577C0.42924 0.164577 0.071068 0.522749 0.071068 0.964577C0.071068 1.4064 0.42924 1.76458 0.871068 1.76458H7.27107V8.16458C7.27107 8.6064 7.62924 8.96458 8.07107 8.96458C8.5129 8.96458 8.87107 8.6064 8.87107 8.16458L8.87107 0.964577ZM1.56569 8.60133L8.63675 1.53026L7.50538 0.398891L0.434315 7.46996L1.56569 8.60133Z" fill="white" fill-opacity="0.8"/>
</svg>
